<svg width="292" height="192" viewBox="0 0 292 192" fill="none" xmlns="http://www.w3.org/2000/svg">
<g clip-path="url(#clip0_1201_575)">
<path d="M124.791 0V3.36752H117.717V23.5829H114.021V3.36752H106.947V0H124.791ZM154.588 23.5829H150.891V13.3053H139.267V23.5829H135.571V0H139.267V9.94808H150.891V0H154.588V23.5829ZM185.044 20.2154V23.5829H168.045V0H184.714V3.36752H171.741V9.59794H182.017V12.9655H171.741V20.2051H185.044V20.2154Z" fill="url(#paint0_linear_1201_575)"/>
<path d="M0.000191124 98.0701C-0.226325 81.5415 11.9026 69.8633 28.3559 69.1733C37.3754 68.2671 46.1683 70.543 51.9342 74.7858L43.8929 81.6136C38.127 74.9403 30.9299 70.0075 22.59 72.0568C14.8576 73.9517 11.7481 81.2325 11.7481 90.7069C11.8202 108.07 21.4575 124.073 37.674 124.073C44.3459 124.073 51.0899 121.272 55.3422 116.267L56.3307 117.482C50.8737 124.228 41.7718 127.564 32.3714 127.647C12.7366 127.791 0.154634 115.278 0.000191124 98.0701Z" fill="white"/>
<path d="M61.0361 98.07C61.0361 81.768 73.999 68.5759 91.5952 68.5759C109.263 68.5759 122.154 81.768 122.154 98.07C122.154 114.455 109.191 127.647 91.5952 127.647C73.927 127.647 61.0361 114.444 61.0361 98.07ZM110.314 105.732C110.314 89.5843 100.378 68.648 85.4484 71.686C76.6555 73.1998 72.7841 80.7072 72.7841 90.7171C72.8562 106.412 82.5655 126.205 97.1243 124.382C107.06 123.249 110.396 115.515 110.314 105.732Z" fill="white"/>
<path d="M222.902 95.1145C225.404 94.2804 227.607 93.2917 229.347 91.9324C232.529 89.502 234.351 86.3198 234.351 82.7566C234.279 75.0227 226.845 69.4102 213.574 69.4102H190.521V126.895H215.767C222.367 126.895 227.824 125.608 231.767 123.26C236.164 120.531 238.593 116.36 238.666 111.046C238.83 103.302 233.136 96.7828 222.902 95.1145ZM202.289 71.3771H206.994C215.561 71.3771 220.184 75.3934 222.305 80.0173C223.139 81.5312 223.52 83.2819 223.52 85.0223C223.52 87.4526 222.758 89.7285 221.399 91.3969C219.659 93.5183 216.93 94.7335 213.357 94.7335H202.289V76.6189L193.218 71.3771H202.289ZM223.818 121.725C221.769 123.692 218.66 124.835 214.109 124.835H202.279V96.8549H209.023C220.472 96.8549 227.062 105.577 227.062 113.538C227.072 116.72 226.094 119.686 223.818 121.725Z" fill="white"/>
<path d="M164.379 95.1145C166.881 94.2804 169.084 93.2917 170.824 91.9324C174.006 89.502 175.828 86.3198 175.828 82.7566C175.756 75.0227 168.322 69.4102 155.05 69.4102H131.997V126.895H157.243C163.843 126.895 169.3 125.608 173.244 123.26C177.64 120.531 180.07 116.36 180.142 111.046C180.297 103.302 174.613 96.7828 164.379 95.1145ZM143.755 71.3771H148.461C157.027 71.3771 161.65 75.3934 163.771 80.0173C164.605 81.5312 164.986 83.2819 164.986 85.0223C164.986 87.4526 164.224 89.7285 162.865 91.3969C161.125 93.5183 158.397 94.7335 154.824 94.7335H143.755V76.6189L134.684 71.3771H143.755ZM165.285 121.725C163.236 123.692 160.126 124.835 155.575 124.835H143.745V96.8549H150.489C161.938 96.8549 168.528 105.577 168.528 113.538C168.549 116.72 167.56 119.686 165.285 121.725Z" fill="white"/>
<path d="M245.184 121.241L253.276 114.279C257.508 120.705 268.247 125.175 276.041 124.711C281.179 124.33 284.968 121.684 284.886 117.379C284.659 104.218 247.078 103.693 247.531 82.4373C247.83 73.4367 256.911 68.5244 267.794 68.5244C275.434 68.5244 283.753 70.7179 289.797 74.8063L281.787 81.6134C277.781 75.4139 268.556 70.8724 262.049 71.2534C257.436 71.48 254.265 74.1266 254.337 78.3592C254.491 90.3051 292.525 92.2 291.99 112.992C291.836 123.28 281.179 127.811 269.153 127.585C260.535 127.441 251.31 125.401 245.184 121.241Z" fill="white"/>
<path d="M71.2393 191.67V168.077H80.825C82.7298 168.077 84.3669 168.705 85.7157 169.972C87.0645 171.239 87.7441 172.68 87.7441 174.318C87.7441 175.255 87.5484 176.13 87.1572 176.913C86.7659 177.706 86.3747 178.252 85.9937 178.561L85.3862 179.034C85.4789 179.076 85.6024 179.148 85.7569 179.261C85.9113 179.364 86.1996 179.591 86.6218 179.93C87.0439 180.281 87.4043 180.662 87.7029 181.073C88.0015 181.485 88.2897 182.031 88.5472 182.69C88.8046 183.36 88.9384 184.039 88.9384 184.76C88.9384 186.645 88.2177 188.272 86.7659 189.631C85.3141 190.991 83.5123 191.67 81.3501 191.67H71.2393ZM74.9459 171.28V177.685H80.8353C81.762 177.685 82.5239 177.376 83.1314 176.769C83.7388 176.161 84.0477 175.399 84.0477 174.483C84.0477 173.566 83.7388 172.804 83.1314 172.196C82.5239 171.589 81.762 171.28 80.8353 171.28H74.9459ZM81.3398 188.468C82.4415 188.468 83.3579 188.097 84.1095 187.355C84.8508 186.614 85.2318 185.697 85.2318 184.595C85.2318 183.494 84.8611 182.577 84.1198 181.825C83.3785 181.084 82.4518 180.703 81.3501 180.703H74.9459V188.457H81.3398V188.468ZM101.036 168.077H104.733V191.67H101.036V168.077ZM128.63 183.102C128.167 182.618 127.58 182.227 126.849 181.949C126.118 181.671 125.315 181.413 124.419 181.197C123.534 180.971 122.638 180.692 121.752 180.363C120.867 180.033 120.054 179.642 119.322 179.179C118.591 178.715 117.994 178.066 117.541 177.212C117.078 176.357 116.851 175.337 116.851 174.143C116.851 172.32 117.552 170.796 118.942 169.57C120.331 168.345 122.226 167.737 124.604 167.737C125.48 167.737 126.324 167.84 127.127 168.057C127.93 168.273 128.599 168.52 129.135 168.819C129.67 169.107 130.133 169.406 130.535 169.694C130.937 169.982 131.225 170.24 131.41 170.446L131.678 170.775L129.33 173.144C129.289 173.103 129.227 173.031 129.135 172.917C129.052 172.814 128.867 172.65 128.579 172.423C128.29 172.196 127.971 171.99 127.642 171.815C127.302 171.63 126.87 171.476 126.324 171.331C125.778 171.187 125.202 171.115 124.604 171.115C123.389 171.115 122.411 171.414 121.67 172.021C120.929 172.629 120.558 173.329 120.558 174.143C120.558 174.864 120.785 175.471 121.248 175.966C121.711 176.46 122.298 176.841 123.029 177.129C123.76 177.407 124.563 177.665 125.459 177.891C126.344 178.118 127.24 178.386 128.126 178.715C129.011 179.034 129.825 179.426 130.556 179.889C131.287 180.353 131.884 181.012 132.337 181.866C132.8 182.721 133.027 183.741 133.027 184.925C133.027 187.005 132.285 188.715 130.792 190.023C129.299 191.341 127.24 192 124.604 192C123.534 192 122.504 191.876 121.536 191.609C120.568 191.351 119.765 191.042 119.147 190.692C118.519 190.332 117.974 189.971 117.521 189.611C117.057 189.25 116.728 188.952 116.522 188.704L116.192 188.293L118.54 185.945C118.581 186.017 118.653 186.109 118.766 186.233C118.869 186.356 119.106 186.583 119.477 186.892C119.848 187.201 120.239 187.479 120.671 187.716C121.104 187.953 121.67 188.169 122.37 188.354C123.081 188.55 123.822 188.643 124.615 188.643C126.077 188.643 127.23 188.282 128.064 187.572C128.908 186.861 129.33 185.975 129.33 184.925C129.32 184.204 129.083 183.597 128.63 183.102ZM159.272 168.077V171.445H152.198V191.67H148.492V171.445H141.418V168.077H159.272ZM170.052 168.077H179.988C182.17 168.077 183.983 168.777 185.414 170.168C186.845 171.558 187.566 173.288 187.566 175.337C187.566 176.305 187.401 177.201 187.071 178.046C186.742 178.88 186.351 179.549 185.887 180.033C185.424 180.517 184.961 180.94 184.508 181.3C184.044 181.66 183.653 181.908 183.324 182.042L182.85 182.258L188.245 191.691H184.199L179.154 182.587H173.758V191.691H170.062V168.077H170.052ZM182.737 172.557C181.995 171.815 181.079 171.445 179.977 171.445H173.738V179.199H179.977C181.069 179.199 181.995 178.828 182.737 178.087C183.478 177.346 183.849 176.429 183.849 175.327C183.849 174.225 183.478 173.298 182.737 172.557ZM202.588 171.27C204.976 168.922 207.942 167.748 211.463 167.748C214.995 167.748 217.95 168.922 220.338 171.27C222.727 173.618 223.921 176.48 223.921 179.869C223.921 183.257 222.727 186.13 220.338 188.478C217.95 190.826 214.984 192 211.463 192C207.942 192 204.976 190.826 202.588 188.478C200.199 186.13 199.005 183.267 199.005 179.869C198.994 176.48 200.189 173.618 202.588 171.27ZM205.244 186.099C206.943 187.798 209.013 188.653 211.463 188.653C213.914 188.653 215.993 187.798 217.682 186.099C219.371 184.4 220.225 182.32 220.225 179.879C220.225 177.438 219.381 175.358 217.682 173.669C215.983 171.97 213.914 171.125 211.463 171.125C209.013 171.125 206.943 171.97 205.244 173.669C203.556 175.358 202.701 177.438 202.701 179.879C202.701 182.32 203.545 184.39 205.244 186.099Z" fill="url(#paint1_linear_1201_575)"/>
</g>
<defs>
<linearGradient id="paint0_linear_1201_575" x1="45.3397" y1="3.3565" x2="319.835" y2="25.6084" gradientUnits="userSpaceOnUse">
<stop offset="0.1807" stop-color="#FDC581"/>
<stop offset="0.2293" stop-color="#EDB677"/>
<stop offset="0.5895" stop-color="#AD7146"/>
<stop offset="0.8569" stop-color="#8B502D"/>
<stop offset="1" stop-color="#7F4425"/>
</linearGradient>
<linearGradient id="paint1_linear_1201_575" x1="30.0278" y1="170.656" x2="304.523" y2="192.908" gradientUnits="userSpaceOnUse">
<stop offset="0.1807" stop-color="#FDC581"/>
<stop offset="0.2293" stop-color="#EDB677"/>
<stop offset="0.5895" stop-color="#AD7146"/>
<stop offset="0.8569" stop-color="#8B502D"/>
<stop offset="1" stop-color="#7F4425"/>
</linearGradient>
<clipPath id="clip0_1201_575">
<rect width="292" height="192" fill="white"/>
</clipPath>
</defs>
</svg>
